<?xml version="1.0" encoding="UTF-8"?>
<svg xmlns="http://www.w3.org/2000/svg" version="1.1" xmlns:xlink="http://www.w3.org/1999/xlink" viewBox="0 0 2500 2500">
  <defs>
    <style>
      .cls-1 {
        fill: url(#linear-gradient-2);
      }

      .cls-2, .cls-3, .cls-4 {
        display: none;
      }

      .cls-2, .cls-5 {
        isolation: isolate;
      }

      .cls-6 {
        fill: #fff;
      }

      .cls-3 {
        fill: #207fc3;
      }

      .cls-7 {
        fill: url(#linear-gradient-3);
      }

      .cls-5 {
        fill: #231f20;
        font-family: Mortend-ExtraBold, Mortend;
        font-size: 1000px;
        font-weight: 700;
      }

      .cls-8 {
        fill: url(#linear-gradient);
      }
    </style>
    <linearGradient id="linear-gradient" x1="818.4" y1="2604.6" x2="1453.2" y2="1266.7" gradientTransform="translate(0 2500) scale(1 -1)" gradientUnits="userSpaceOnUse">
      <stop offset="0" stop-color="#64c8ea"/>
      <stop offset=".3" stop-color="#68bcec"/>
      <stop offset=".5" stop-color="#71a4f1"/>
      <stop offset=".7" stop-color="#8a58fe"/>
    </linearGradient>
    <linearGradient id="linear-gradient-2" x1="1100.6" y1="1820.2" x2="1735.4" y2="482.4" gradientTransform="translate(2829.5 803.7) rotate(-180) scale(1 -1)" gradientUnits="userSpaceOnUse">
      <stop offset=".4" stop-color="#625ea9"/>
      <stop offset=".5" stop-color="#5d64ac"/>
      <stop offset=".6" stop-color="#5175b4"/>
      <stop offset=".7" stop-color="#3c92c3"/>
      <stop offset=".9" stop-color="#20bad6"/>
      <stop offset=".9" stop-color="#20bbd7"/>
    </linearGradient>
    <linearGradient id="linear-gradient-3" x1="3116.5" y1="1253.8" x2="3751.2" y2="-84.1" gradientTransform="translate(4850.8 1371.3) rotate(-180) scale(1 -1)" gradientUnits="userSpaceOnUse">
      <stop offset="0" stop-color="#8a58fe"/>
      <stop offset=".3" stop-color="#8a58fe"/>
      <stop offset=".7" stop-color="#71a4f1"/>
      <stop offset=".9" stop-color="#64c8ea"/>
      <stop offset="1" stop-color="#66c3eb"/>
    </linearGradient>
  </defs>
  <!-- Generator: Adobe Illustrator 28.7.7, SVG Export Plug-In . SVG Version: 1.2.0 Build 194)  -->
  <g>
    <g id="Layer_1">
      <g>
        <g id="Layer_1-2" data-name="Layer_1" class="cls-4">
          <g class="cls-2">
            <text class="cls-5" transform="translate(901 1627.5)"><tspan x="0" y="0">Z</tspan></text>
          </g>
        </g>
        <g id="Layer_3">
          <rect class="cls-6" x="260.1" y="1894.2" width="472.3" height="429" rx="25" ry="25"/>
          <rect class="cls-6" x="1779.2" y="223.7" width="472" height="429.1" rx="25" ry="25"/>
        </g>
        <g id="Layer_8">
          <path class="cls-3" d="M1595.2,1526.6c-18.5-20.3-48.9-20.3-67.4,0l-695.7,762.6c-18.5,20.3-11.2,36.9,16.3,36.9h1426.2c27.5,0,34.8-16.6,16.3-36.9l-695.7-762.6h0Z"/>
          <path class="cls-8" d="M939.9,1005.2c18.5,20.3,48.9,20.3,67.4,0L1703.1,242.6c18.5-20.3,11.2-36.9-16.3-36.9H260.5c-27.5,0-34.8,16.6-16.3,36.9l695.7,762.6h0Z"/>
          <path class="cls-1" d="M1607.3,1514.1c-18.5-20.3-48.9-20.3-67.4,0l-695.7,762.6c-18.5,20.3-11.2,36.9,16.3,36.9h1426.2c27.5,0,34.8-16.6,16.3-36.9l-695.7-762.6h0Z"/>
          <path class="cls-7" d="M1612.7,1515.3c-18.5-20.3-48.9-20.3-67.4,0l-695.7,762.6c-18.5,20.3-11.2,36.9,16.3,36.9h1426.2c27.5,0,34.8-16.6,16.3-36.9l-695.7-762.6h0Z"/>
        </g>
        <g id="Layer_5">
          <rect class="cls-6" x="120.1" y="966.4" width="2270.7" height="613.7" transform="translate(-531.2 1344.6) rotate(-47.7)"/>
        </g>
      </g>
    </g>
  </g>
</svg>